<?xml version="1.0" encoding="UTF-8" standalone="no"?>
<!-- Created with Inkscape (http://www.inkscape.org/) -->

<svg
   width="183.84778mm"
   height="183.84776mm"
   viewBox="0 0 183.84778 183.84776"
   version="1.1"
   id="svg5"
   sodipodi:docname="logoWhite.svg"
   inkscape:version="1.2.2 (732a01da63, 2022-12-09)"
   xmlns:inkscape="http://www.inkscape.org/namespaces/inkscape"
   xmlns:sodipodi="http://sodipodi.sourceforge.net/DTD/sodipodi-0.dtd"
   xmlns="http://www.w3.org/2000/svg"
   xmlns:svg="http://www.w3.org/2000/svg">
  <sodipodi:namedview
     id="namedview37"
     pagecolor="#ffffff"
     bordercolor="#000000"
     borderopacity="0.25"
     inkscape:showpageshadow="2"
     inkscape:pageopacity="0.0"
     inkscape:pagecheckerboard="0"
     inkscape:deskcolor="#d1d1d1"
     inkscape:document-units="mm"
     showgrid="false"
     inkscape:zoom="0.64"
     inkscape:cx="196.09375"
     inkscape:cy="351.5625"
     inkscape:window-width="1920"
     inkscape:window-height="1027"
     inkscape:window-x="-8"
     inkscape:window-y="-8"
     inkscape:window-maximized="1"
     inkscape:current-layer="layer2" />
  <defs
     id="defs2" />
  <g
     id="layer2"
     transform="matrix(0,1.1821581,-1.2586394,0,242.34538,-87.988375)"
     inkscape:label="layer2">
    <rect
       style="fill:#ffffff;fill-opacity:1;stroke-width:0.207876"
       id="rect1031"
       width="45.133675"
       height="8.2061224"
       x="-5.4545078"
       y="107.56686"
       transform="matrix(0.7289059,-0.68461389,0.7289059,0.68461389,0,0)" />
    <rect
       style="fill:#ffffff;fill-opacity:1;stroke-width:0.207876"
       id="rect1031-0"
       width="45.133675"
       height="8.2061224"
       x="-5.4545078"
       y="267.58624"
       transform="matrix(0.7289059,-0.68461389,0.7289059,0.68461389,0,0)" />
    <rect
       style="fill:#ffffff;fill-opacity:1;stroke-width:0.207876"
       id="rect1031-0-8"
       width="45.133671"
       height="8.2061224"
       x="-214.24646"
       y="-67.00042"
       transform="matrix(-0.7289059,-0.68461389,0.7289059,-0.68461389,0,0)" />
    <rect
       style="fill:#ffffff;fill-opacity:1;stroke-width:0.280298"
       id="rect1031-0-8-1"
       width="82.061218"
       height="8.2061224"
       x="-189.62808"
       y="-5.4545078"
       transform="matrix(-0.7289059,-0.68461389,0.7289059,-0.68461389,0,0)" />
    <rect
       style="fill:#ffffff;fill-opacity:1;stroke-width:0.250707"
       id="rect1031-0-8-1-1"
       width="65.648979"
       height="8.2061224"
       x="-173.21584"
       y="31.473045"
       transform="matrix(-0.7289059,-0.68461389,0.7289059,-0.68461389,0,0)" />
    <rect
       style="fill:#ffffff;fill-opacity:1;stroke-width:0.280298"
       id="rect1031-0-8-1-1-3"
       width="82.061218"
       height="8.2061224"
       x="-275.79236"
       y="31.473045"
       transform="matrix(-0.7289059,-0.68461389,0.7289059,-0.68461389,0,0)" />
    <rect
       style="fill:#ffffff;fill-opacity:1;stroke-width:0.250707"
       id="rect1031-0-8-1-1-3-2"
       width="65.648979"
       height="8.2061224"
       x="35.576107"
       y="206.04033"
       transform="matrix(0.7289059,-0.68461389,0.7289059,0.68461389,0,0)" />
    <rect
       style="fill:#ffffff;fill-opacity:1;stroke-width:0.280298"
       id="rect1031-0-8-1-1-3-2-9"
       width="82.061226"
       height="8.2061224"
       x="-15.0608"
       y="206.04033"
       transform="matrix(-0.7289059,0.68461389,0.7289059,0.68461389,0,0)" />
    <rect
       style="fill:#ffffff;fill-opacity:1;stroke-width:0.250707"
       id="rect1031-0-8-1-1-3-2-9-7"
       width="65.648979"
       height="8.2061224"
       x="-67.00042"
       y="169.11278"
       transform="matrix(0.7289059,-0.68461389,0.7289059,0.68461389,0,0)" />
    <rect
       style="fill:#ffffff;fill-opacity:1;stroke-width:0.2803"
       id="rect1031-0-8-1-1-3-2-9-7-6"
       width="82.061226"
       height="8.2061224"
       x="19.16386"
       y="169.11278"
       transform="matrix(0.7289059,-0.68461389,0.7289059,0.68461389,0,0)" />
    <rect
       style="fill:#ffffff;fill-opacity:1;stroke-width:0.250709"
       id="rect1031-0-8-1-1-3-5"
       width="65.648979"
       height="8.2061224"
       x="-275.79236"
       y="-5.4545078"
       transform="matrix(-0.7289059,-0.68461389,0.7289059,-0.68461389,0,0)" />
    <rect
       style="fill:#ffffff;fill-opacity:1;stroke-width:0.207876"
       id="rect1031-0-8-9"
       width="45.133671"
       height="8.2061224"
       x="-214.24646"
       y="93.018951"
       transform="matrix(-0.7289059,-0.68461389,0.7289059,-0.68461389,0,0)" />
  </g>
</svg>
